<svg xmlns="http://www.w3.org/2000/svg" width="81" height="24" viewBox="0 0 81 24">
    <path fill="#B6BDBF" fill-rule="evenodd" d="M11.831 0c6.536 0 11.832 5.373 11.832 12s-5.296 12-11.832 12C5.297 24 0 18.627 0 12S5.297 0 11.831 0zm7.976 6.754c-.754-.653-10.618-3.183-11.37-2.917C8.167 4.09 8.022 6 8 8.064c-2.076-.496-3.866-.845-4.17-.738-.584.547-.584 8.845 0 9.69.752.653 10.618 3.184 11.371 2.917.27-.252.415-2.162.436-4.226 2.075.496 3.865.845 4.17.737.583-.545.585-8.842 0-9.69zM43.962 5.2c2.882 0 5.169 1.575 5.169 5.685v2.108c0 4.11-2.287 5.685-5.17 5.685-2.88 0-5.168-1.576-5.168-5.685v-2.108c0-4.11 2.288-5.685 5.169-5.685zm18.86.159c.175 0 .314.141.35.319l2.182 10.22c.036.194.087.265.245.265.157 0 .21-.07.245-.265l2.183-10.22c.034-.178.157-.32.331-.32h2.445c.174 0 .297.107.297.284 0 .018-.017.053-.017.089L68.48 16.71c-.402 1.702-1.677 1.967-2.882 1.967s-2.497-.265-2.9-1.967l-2.602-10.98c0-.036-.017-.053-.017-.089 0-.16.14-.283.314-.283h2.429zm13.622-.16c1.274 0 3.037.213 3.701.39.139.035.262.124.262.32v1.788c0 .16-.07.301-.297.301h-.034c-.49-.035-2.516-.195-3.703-.195-.995 0-1.362.301-1.362.938 0 .497.227.727 1.17 1.24l2.234 1.223c1.817.992 2.359 2.16 2.359 3.595 0 1.878-1.222 3.88-4.767 3.88-1.38 0-2.41-.16-3.3-.39-.175-.053-.35-.16-.35-.355v-1.736c0-.247.14-.336.314-.336h.053c.715.071 2.637.212 3.317.212 1.206 0 1.554-.39 1.554-1.24 0-.513-.245-.796-1.151-1.345l-2.41-1.452c-1.625-.975-2.06-2.09-2.06-3.384 0-1.948 1.08-3.453 4.47-3.453zm-38.715.16c.192 0 .366.142.366.336V7.52c0 .195-.174.337-.366.337h-2.83v10.307c0 .196-.157.355-.349.355h-2.288c-.191 0-.349-.16-.349-.355V7.857h-2.846c-.193 0-.35-.142-.35-.337V5.695c0-.194.157-.336.35-.336h8.662zm21.076 0c.192 0 .367.142.367.336V7.52c0 .195-.175.337-.367.337h-2.829v10.307c0 .196-.156.355-.349.355H53.34c-.192 0-.348-.16-.348-.355V7.857h-2.847c-.192 0-.35-.142-.35-.337V5.695c0-.194.158-.336.35-.336h8.661zM43.962 7.856c-1.466 0-2.148.904-2.148 3.029v2.108c0 2.125.682 3.028 2.148 3.028 1.467 0 2.165-.903 2.165-3.028v-2.108c0-2.125-.698-3.029-2.165-3.029zm-35.96.208c3.064.734 6.75 1.79 7.2 2.18.315.455.46 3.063.436 5.463-3.065-.734-6.754-1.791-7.203-2.18-.313-.455-.457-3.063-.434-5.463z"/>
</svg>
